<mxfile host="65bd71144e">
    <diagram id="5EePA5PlAxlkuoHpZVgH" name="Page-1">
        <mxGraphModel dx="1048" dy="872" grid="1" gridSize="10" guides="1" tooltips="1" connect="1" arrows="1" fold="1" page="1" pageScale="1" pageWidth="1654" pageHeight="1169" math="0" shadow="0">
            <root>
                <mxCell id="0"/>
                <mxCell id="1" parent="0"/>
                <mxCell id="YUvY62k6yK-k-bDOzvRu-8" value="Kurzus" style="rounded=1;whiteSpace=wrap;html=1;" parent="1" vertex="1">
                    <mxGeometry x="380" y="310" width="170" height="60" as="geometry"/>
                </mxCell>
                <mxCell id="YUvY62k6yK-k-bDOzvRu-9" value="Oktató" style="rounded=1;whiteSpace=wrap;html=1;" parent="1" vertex="1">
                    <mxGeometry x="325" y="460" width="120" height="60" as="geometry"/>
                </mxCell>
                <mxCell id="YUvY62k6yK-k-bDOzvRu-17" value="Hallgató" style="rounded=1;whiteSpace=wrap;html=1;" parent="1" vertex="1">
                    <mxGeometry x="485" y="585" width="120" height="60" as="geometry"/>
                </mxCell>
                <mxCell id="YUvY62k6yK-k-bDOzvRu-18" value="Felhasználó" style="rounded=1;whiteSpace=wrap;html=1;" parent="1" vertex="1">
                    <mxGeometry x="300" y="780" width="170" height="60" as="geometry"/>
                </mxCell>
                <mxCell id="H9JvahoUxYna2Dedu3gO-1" value="Terem" style="rounded=1;whiteSpace=wrap;html=1;" parent="1" vertex="1">
                    <mxGeometry x="740" y="460" width="120" height="60" as="geometry"/>
                </mxCell>
                <mxCell id="H9JvahoUxYna2Dedu3gO-20" value="" style="group;rotation=-180;" parent="1" vertex="1" connectable="0">
                    <mxGeometry x="370" y="270" width="30" height="55" as="geometry"/>
                </mxCell>
                <mxCell id="H9JvahoUxYna2Dedu3gO-21" value="" style="endArrow=none;html=1;rounded=0;" parent="H9JvahoUxYna2Dedu3gO-20" edge="1">
                    <mxGeometry width="50" height="50" relative="1" as="geometry">
                        <mxPoint x="15" y="96.25" as="sourcePoint"/>
                        <mxPoint x="30" y="123.75" as="targetPoint"/>
                    </mxGeometry>
                </mxCell>
                <mxCell id="H9JvahoUxYna2Dedu3gO-22" value="" style="endArrow=none;html=1;rounded=0;" parent="H9JvahoUxYna2Dedu3gO-20" edge="1">
                    <mxGeometry width="50" height="50" relative="1" as="geometry">
                        <mxPoint x="30" y="96.25" as="sourcePoint"/>
                        <mxPoint x="30" y="123.75" as="targetPoint"/>
                    </mxGeometry>
                </mxCell>
                <mxCell id="H9JvahoUxYna2Dedu3gO-23" value="" style="endArrow=none;html=1;rounded=0;" parent="H9JvahoUxYna2Dedu3gO-20" edge="1">
                    <mxGeometry width="50" height="50" relative="1" as="geometry">
                        <mxPoint x="45" y="96.25" as="sourcePoint"/>
                        <mxPoint x="30" y="123.75" as="targetPoint"/>
                    </mxGeometry>
                </mxCell>
                <mxCell id="H9JvahoUxYna2Dedu3gO-24" value="" style="endArrow=none;html=1;rounded=0;" parent="H9JvahoUxYna2Dedu3gO-20" edge="1">
                    <mxGeometry width="50" height="50" relative="1" as="geometry">
                        <mxPoint x="30" y="151" as="sourcePoint"/>
                        <mxPoint x="30" y="123.75" as="targetPoint"/>
                        <Array as="points">
                            <mxPoint x="30" y="151.25"/>
                        </Array>
                    </mxGeometry>
                </mxCell>
                <mxCell id="H9JvahoUxYna2Dedu3gO-25" value="" style="group;rotation=90;" parent="1" vertex="1" connectable="0">
                    <mxGeometry x="567.5" y="312.5" width="20" height="50" as="geometry"/>
                </mxCell>
                <mxCell id="H9JvahoUxYna2Dedu3gO-26" value="" style="endArrow=none;html=1;rounded=0;" parent="H9JvahoUxYna2Dedu3gO-25" edge="1">
                    <mxGeometry width="50" height="50" relative="1" as="geometry">
                        <mxPoint x="-20" y="33" as="sourcePoint"/>
                        <mxPoint x="7" y="24" as="targetPoint"/>
                    </mxGeometry>
                </mxCell>
                <mxCell id="H9JvahoUxYna2Dedu3gO-27" value="" style="endArrow=none;html=1;rounded=0;" parent="H9JvahoUxYna2Dedu3gO-25" edge="1">
                    <mxGeometry width="50" height="50" relative="1" as="geometry">
                        <mxPoint x="-20" y="24" as="sourcePoint"/>
                        <mxPoint x="7" y="24" as="targetPoint"/>
                    </mxGeometry>
                </mxCell>
                <mxCell id="H9JvahoUxYna2Dedu3gO-28" value="" style="endArrow=none;html=1;rounded=0;" parent="H9JvahoUxYna2Dedu3gO-25" edge="1">
                    <mxGeometry width="50" height="50" relative="1" as="geometry">
                        <mxPoint x="-20" y="15" as="sourcePoint"/>
                        <mxPoint x="7" y="24" as="targetPoint"/>
                    </mxGeometry>
                </mxCell>
                <mxCell id="H9JvahoUxYna2Dedu3gO-29" value="" style="endArrow=none;html=1;rounded=0;" parent="H9JvahoUxYna2Dedu3gO-25" edge="1">
                    <mxGeometry width="50" height="50" relative="1" as="geometry">
                        <mxPoint x="76" y="23" as="sourcePoint"/>
                        <mxPoint x="7" y="24" as="targetPoint"/>
                        <Array as="points">
                            <mxPoint x="35" y="24"/>
                        </Array>
                    </mxGeometry>
                </mxCell>
                <mxCell id="H9JvahoUxYna2Dedu3gO-30" value="Épület" style="rounded=1;whiteSpace=wrap;html=1;" parent="1" vertex="1">
                    <mxGeometry x="740" y="645" width="120" height="60" as="geometry"/>
                </mxCell>
                <mxCell id="H9JvahoUxYna2Dedu3gO-31" value="" style="group;rotation=-180;" parent="1" vertex="1" connectable="0">
                    <mxGeometry x="785" y="520" width="30" height="45" as="geometry"/>
                </mxCell>
                <mxCell id="H9JvahoUxYna2Dedu3gO-32" value="" style="endArrow=none;html=1;rounded=0;" parent="H9JvahoUxYna2Dedu3gO-31" edge="1">
                    <mxGeometry width="50" height="50" relative="1" as="geometry">
                        <mxPoint as="sourcePoint"/>
                        <mxPoint x="15" y="23" as="targetPoint"/>
                    </mxGeometry>
                </mxCell>
                <mxCell id="H9JvahoUxYna2Dedu3gO-33" value="" style="endArrow=none;html=1;rounded=0;" parent="H9JvahoUxYna2Dedu3gO-31" edge="1">
                    <mxGeometry width="50" height="50" relative="1" as="geometry">
                        <mxPoint x="15" as="sourcePoint"/>
                        <mxPoint x="15" y="23" as="targetPoint"/>
                    </mxGeometry>
                </mxCell>
                <mxCell id="H9JvahoUxYna2Dedu3gO-34" value="" style="endArrow=none;html=1;rounded=0;" parent="H9JvahoUxYna2Dedu3gO-31" edge="1">
                    <mxGeometry width="50" height="50" relative="1" as="geometry">
                        <mxPoint x="30" as="sourcePoint"/>
                        <mxPoint x="15" y="23" as="targetPoint"/>
                    </mxGeometry>
                </mxCell>
                <mxCell id="H9JvahoUxYna2Dedu3gO-35" value="" style="endArrow=none;html=1;rounded=0;" parent="H9JvahoUxYna2Dedu3gO-31" edge="1">
                    <mxGeometry width="50" height="50" relative="1" as="geometry">
                        <mxPoint x="15" y="79" as="sourcePoint"/>
                        <mxPoint x="15" y="23" as="targetPoint"/>
                        <Array as="points">
                            <mxPoint x="15" y="45"/>
                        </Array>
                    </mxGeometry>
                </mxCell>
                <mxCell id="H9JvahoUxYna2Dedu3gO-36" value="Log" style="rounded=1;whiteSpace=wrap;html=1;" parent="1" vertex="1">
                    <mxGeometry x="320" y="1020" width="120" height="60" as="geometry"/>
                </mxCell>
                <mxCell id="H9JvahoUxYna2Dedu3gO-38" value="Hirdetmény" style="rounded=1;whiteSpace=wrap;html=1;" parent="1" vertex="1">
                    <mxGeometry x="130" y="462.5" width="120" height="60" as="geometry"/>
                </mxCell>
                <mxCell id="H9JvahoUxYna2Dedu3gO-39" value="" style="group" parent="1" vertex="1" connectable="0">
                    <mxGeometry x="170" y="406.25" width="40" height="60" as="geometry"/>
                </mxCell>
                <mxCell id="H9JvahoUxYna2Dedu3gO-40" value="" style="endArrow=none;html=1;rounded=0;" parent="H9JvahoUxYna2Dedu3gO-39" edge="1">
                    <mxGeometry width="50" height="50" relative="1" as="geometry">
                        <mxPoint x="40" y="60" as="sourcePoint"/>
                        <mxPoint x="20" y="30" as="targetPoint"/>
                    </mxGeometry>
                </mxCell>
                <mxCell id="H9JvahoUxYna2Dedu3gO-41" value="" style="endArrow=none;html=1;rounded=0;" parent="H9JvahoUxYna2Dedu3gO-39" edge="1">
                    <mxGeometry width="50" height="50" relative="1" as="geometry">
                        <mxPoint x="20" y="60" as="sourcePoint"/>
                        <mxPoint x="20" y="30" as="targetPoint"/>
                    </mxGeometry>
                </mxCell>
                <mxCell id="H9JvahoUxYna2Dedu3gO-42" value="" style="endArrow=none;html=1;rounded=0;" parent="H9JvahoUxYna2Dedu3gO-39" edge="1">
                    <mxGeometry width="50" height="50" relative="1" as="geometry">
                        <mxPoint y="60" as="sourcePoint"/>
                        <mxPoint x="20" y="30" as="targetPoint"/>
                    </mxGeometry>
                </mxCell>
                <mxCell id="H9JvahoUxYna2Dedu3gO-43" value="" style="endArrow=none;html=1;rounded=0;" parent="H9JvahoUxYna2Dedu3gO-39" edge="1">
                    <mxGeometry width="50" height="50" relative="1" as="geometry">
                        <mxPoint x="20" y="-45" as="sourcePoint"/>
                        <mxPoint x="20" y="30" as="targetPoint"/>
                        <Array as="points">
                            <mxPoint x="20"/>
                        </Array>
                    </mxGeometry>
                </mxCell>
                <mxCell id="H9JvahoUxYna2Dedu3gO-44" value="" style="endArrow=none;html=1;rounded=0;entryX=0;entryY=0.5;entryDx=0;entryDy=0;dashed=1;" parent="1" target="YUvY62k6yK-k-bDOzvRu-8" edge="1">
                    <mxGeometry width="50" height="50" relative="1" as="geometry">
                        <mxPoint x="190" y="340" as="sourcePoint"/>
                        <mxPoint x="400" y="430" as="targetPoint"/>
                    </mxGeometry>
                </mxCell>
                <mxCell id="H9JvahoUxYna2Dedu3gO-50" value="" style="group;rotation=-180;" parent="1" vertex="1" connectable="0">
                    <mxGeometry x="450" y="90" width="660" height="260" as="geometry"/>
                </mxCell>
                <mxCell id="H9JvahoUxYna2Dedu3gO-51" value="" style="endArrow=none;html=1;rounded=0;" parent="H9JvahoUxYna2Dedu3gO-50" edge="1">
                    <mxGeometry width="50" height="50" relative="1" as="geometry">
                        <mxPoint x="10.416666666666668" y="40" as="sourcePoint"/>
                        <mxPoint x="22.916666666666668" y="70" as="targetPoint"/>
                        <Array as="points">
                            <mxPoint y="40"/>
                        </Array>
                    </mxGeometry>
                </mxCell>
                <mxCell id="H9JvahoUxYna2Dedu3gO-52" value="" style="endArrow=none;html=1;rounded=0;" parent="H9JvahoUxYna2Dedu3gO-50" edge="1">
                    <mxGeometry width="50" height="50" relative="1" as="geometry">
                        <mxPoint x="19.71666666666667" y="40" as="sourcePoint"/>
                        <mxPoint x="20" y="110" as="targetPoint"/>
                    </mxGeometry>
                </mxCell>
                <mxCell id="H9JvahoUxYna2Dedu3gO-53" value="" style="endArrow=none;html=1;rounded=0;" parent="H9JvahoUxYna2Dedu3gO-50" edge="1">
                    <mxGeometry width="50" height="50" relative="1" as="geometry">
                        <mxPoint x="50" y="40" as="sourcePoint"/>
                        <mxPoint x="23" y="70" as="targetPoint"/>
                    </mxGeometry>
                </mxCell>
                <mxCell id="lkPcyrDVONSHtsJ02F2I-7" value="" style="group;rotation=-90;" parent="H9JvahoUxYna2Dedu3gO-50" vertex="1" connectable="0">
                    <mxGeometry x="620" y="190" width="40" height="70" as="geometry"/>
                </mxCell>
                <mxCell id="lkPcyrDVONSHtsJ02F2I-8" value="" style="endArrow=none;html=1;rounded=0;" parent="lkPcyrDVONSHtsJ02F2I-7" edge="1">
                    <mxGeometry width="50" height="50" relative="1" as="geometry">
                        <mxPoint x="-77" y="28" as="sourcePoint"/>
                        <mxPoint x="-107" y="39" as="targetPoint"/>
                    </mxGeometry>
                </mxCell>
                <mxCell id="lkPcyrDVONSHtsJ02F2I-9" value="" style="endArrow=none;html=1;rounded=0;" parent="lkPcyrDVONSHtsJ02F2I-7" edge="1">
                    <mxGeometry width="50" height="50" relative="1" as="geometry">
                        <mxPoint x="-77" y="39" as="sourcePoint"/>
                        <mxPoint x="-107" y="39" as="targetPoint"/>
                    </mxGeometry>
                </mxCell>
                <mxCell id="lkPcyrDVONSHtsJ02F2I-10" value="" style="endArrow=none;html=1;rounded=0;" parent="lkPcyrDVONSHtsJ02F2I-7" edge="1">
                    <mxGeometry width="50" height="50" relative="1" as="geometry">
                        <mxPoint x="-78" y="52" as="sourcePoint"/>
                        <mxPoint x="-107" y="39" as="targetPoint"/>
                    </mxGeometry>
                </mxCell>
                <mxCell id="lkPcyrDVONSHtsJ02F2I-11" value="" style="endArrow=none;html=1;rounded=0;" parent="lkPcyrDVONSHtsJ02F2I-7" edge="1">
                    <mxGeometry width="50" height="50" relative="1" as="geometry">
                        <mxPoint x="-182" y="40" as="sourcePoint"/>
                        <mxPoint x="-107" y="39" as="targetPoint"/>
                        <Array as="points">
                            <mxPoint x="-138" y="39"/>
                        </Array>
                    </mxGeometry>
                </mxCell>
                <mxCell id="lkPcyrDVONSHtsJ02F2I-12" value="Vizsga" style="rounded=1;whiteSpace=wrap;html=1;" parent="lkPcyrDVONSHtsJ02F2I-7" vertex="1">
                    <mxGeometry x="-80" y="10" width="120" height="60" as="geometry"/>
                </mxCell>
                <mxCell id="2" value="" style="endArrow=none;dashed=1;html=1;rounded=0;" edge="1" parent="H9JvahoUxYna2Dedu3gO-50">
                    <mxGeometry width="50" height="50" relative="1" as="geometry">
                        <mxPoint x="20" y="110" as="sourcePoint"/>
                        <mxPoint x="20" y="220" as="targetPoint"/>
                    </mxGeometry>
                </mxCell>
                <mxCell id="H9JvahoUxYna2Dedu3gO-37" value="Tananyag" style="rounded=1;whiteSpace=wrap;html=1;" parent="H9JvahoUxYna2Dedu3gO-50" vertex="1">
                    <mxGeometry x="-40" y="-20" width="120" height="60" as="geometry"/>
                </mxCell>
                <mxCell id="H9JvahoUxYna2Dedu3gO-55" value="Bejegyzés" style="rounded=1;whiteSpace=wrap;html=1;" parent="1" vertex="1">
                    <mxGeometry x="20" y="620" width="120" height="60" as="geometry"/>
                </mxCell>
                <mxCell id="67-sIcTnamFB4sGqpy6A-9" value="" style="endArrow=none;html=1;rounded=0;exitX=-0.006;exitY=0.314;exitDx=0;exitDy=0;exitPerimeter=0;dashed=1;" parent="1" source="YUvY62k6yK-k-bDOzvRu-8" edge="1">
                    <mxGeometry width="50" height="50" relative="1" as="geometry">
                        <mxPoint x="320" y="280" as="sourcePoint"/>
                        <mxPoint x="70" y="330" as="targetPoint"/>
                    </mxGeometry>
                </mxCell>
                <mxCell id="67-sIcTnamFB4sGqpy6A-16" value="" style="group" parent="1" vertex="1" connectable="0">
                    <mxGeometry x="510" y="410" width="40" height="52.5" as="geometry"/>
                </mxCell>
                <mxCell id="67-sIcTnamFB4sGqpy6A-17" value="" style="endArrow=none;html=1;rounded=0;" parent="67-sIcTnamFB4sGqpy6A-16" edge="1">
                    <mxGeometry width="50" height="50" relative="1" as="geometry">
                        <mxPoint x="40" y="52.5" as="sourcePoint"/>
                        <mxPoint x="20" y="26.25" as="targetPoint"/>
                    </mxGeometry>
                </mxCell>
                <mxCell id="67-sIcTnamFB4sGqpy6A-18" value="" style="endArrow=none;html=1;rounded=0;" parent="67-sIcTnamFB4sGqpy6A-16" edge="1">
                    <mxGeometry width="50" height="50" relative="1" as="geometry">
                        <mxPoint x="20" y="52.5" as="sourcePoint"/>
                        <mxPoint x="20" y="26.25" as="targetPoint"/>
                    </mxGeometry>
                </mxCell>
                <mxCell id="67-sIcTnamFB4sGqpy6A-19" value="" style="endArrow=none;html=1;rounded=0;" parent="67-sIcTnamFB4sGqpy6A-16" edge="1">
                    <mxGeometry width="50" height="50" relative="1" as="geometry">
                        <mxPoint y="52.5" as="sourcePoint"/>
                        <mxPoint x="20" y="26.25" as="targetPoint"/>
                    </mxGeometry>
                </mxCell>
                <mxCell id="67-sIcTnamFB4sGqpy6A-20" value="" style="endArrow=none;html=1;rounded=0;" parent="67-sIcTnamFB4sGqpy6A-16" edge="1">
                    <mxGeometry width="50" height="50" relative="1" as="geometry">
                        <mxPoint x="20" as="sourcePoint"/>
                        <mxPoint x="20" y="26.25" as="targetPoint"/>
                        <Array as="points">
                            <mxPoint x="20"/>
                        </Array>
                    </mxGeometry>
                </mxCell>
                <mxCell id="67-sIcTnamFB4sGqpy6A-21" value="Feliratkozás" style="rounded=1;whiteSpace=wrap;html=1;" parent="1" vertex="1">
                    <mxGeometry x="485" y="460" width="120" height="60" as="geometry"/>
                </mxCell>
                <mxCell id="67-sIcTnamFB4sGqpy6A-22" value="" style="group;rotation=-180;" parent="1" vertex="1" connectable="0">
                    <mxGeometry x="485" y="480" width="40" height="40" as="geometry"/>
                </mxCell>
                <mxCell id="67-sIcTnamFB4sGqpy6A-23" value="" style="endArrow=none;html=1;rounded=0;" parent="67-sIcTnamFB4sGqpy6A-22" edge="1">
                    <mxGeometry width="50" height="50" relative="1" as="geometry">
                        <mxPoint x="40" y="40" as="sourcePoint"/>
                        <mxPoint x="60" y="60" as="targetPoint"/>
                    </mxGeometry>
                </mxCell>
                <mxCell id="67-sIcTnamFB4sGqpy6A-24" value="" style="endArrow=none;html=1;rounded=0;" parent="67-sIcTnamFB4sGqpy6A-22" edge="1">
                    <mxGeometry width="50" height="50" relative="1" as="geometry">
                        <mxPoint x="60" y="40" as="sourcePoint"/>
                        <mxPoint x="60" y="60" as="targetPoint"/>
                    </mxGeometry>
                </mxCell>
                <mxCell id="67-sIcTnamFB4sGqpy6A-25" value="" style="endArrow=none;html=1;rounded=0;" parent="67-sIcTnamFB4sGqpy6A-22" edge="1">
                    <mxGeometry width="50" height="50" relative="1" as="geometry">
                        <mxPoint x="80" y="40" as="sourcePoint"/>
                        <mxPoint x="60" y="60" as="targetPoint"/>
                    </mxGeometry>
                </mxCell>
                <mxCell id="67-sIcTnamFB4sGqpy6A-26" value="" style="endArrow=none;html=1;rounded=0;" parent="67-sIcTnamFB4sGqpy6A-22" edge="1">
                    <mxGeometry width="50" height="50" relative="1" as="geometry">
                        <mxPoint x="60" y="80" as="sourcePoint"/>
                        <mxPoint x="60" y="60" as="targetPoint"/>
                        <Array as="points">
                            <mxPoint x="60" y="80"/>
                        </Array>
                    </mxGeometry>
                </mxCell>
                <mxCell id="67-sIcTnamFB4sGqpy6A-27" value="" style="endArrow=none;html=1;rounded=0;" parent="1" edge="1">
                    <mxGeometry width="50" height="50" relative="1" as="geometry">
                        <mxPoint x="800" y="336.91" as="sourcePoint"/>
                        <mxPoint x="640" y="336.91" as="targetPoint"/>
                    </mxGeometry>
                </mxCell>
                <mxCell id="67-sIcTnamFB4sGqpy6A-28" value="" style="endArrow=none;html=1;rounded=0;exitX=0.5;exitY=0;exitDx=0;exitDy=0;dashed=1;" parent="1" source="H9JvahoUxYna2Dedu3gO-1" edge="1">
                    <mxGeometry width="50" height="50" relative="1" as="geometry">
                        <mxPoint x="799.83" y="445" as="sourcePoint"/>
                        <mxPoint x="799.83" y="335" as="targetPoint"/>
                    </mxGeometry>
                </mxCell>
                <mxCell id="67-sIcTnamFB4sGqpy6A-29" value="" style="endArrow=none;html=1;rounded=0;" parent="1" edge="1">
                    <mxGeometry width="50" height="50" relative="1" as="geometry">
                        <mxPoint x="70" y="590" as="sourcePoint"/>
                        <mxPoint x="70" y="330" as="targetPoint"/>
                    </mxGeometry>
                </mxCell>
                <mxCell id="67-sIcTnamFB4sGqpy6A-30" value="" style="group" parent="1" vertex="1" connectable="0">
                    <mxGeometry x="50" y="570" width="40" height="52.5" as="geometry"/>
                </mxCell>
                <mxCell id="67-sIcTnamFB4sGqpy6A-31" value="" style="endArrow=none;html=1;rounded=0;" parent="67-sIcTnamFB4sGqpy6A-30" edge="1">
                    <mxGeometry width="50" height="50" relative="1" as="geometry">
                        <mxPoint x="40" y="52.5" as="sourcePoint"/>
                        <mxPoint x="20" y="26.25" as="targetPoint"/>
                    </mxGeometry>
                </mxCell>
                <mxCell id="67-sIcTnamFB4sGqpy6A-32" value="" style="endArrow=none;html=1;rounded=0;" parent="67-sIcTnamFB4sGqpy6A-30" edge="1">
                    <mxGeometry width="50" height="50" relative="1" as="geometry">
                        <mxPoint x="20" y="52.5" as="sourcePoint"/>
                        <mxPoint x="20" y="26.25" as="targetPoint"/>
                    </mxGeometry>
                </mxCell>
                <mxCell id="67-sIcTnamFB4sGqpy6A-33" value="" style="endArrow=none;html=1;rounded=0;" parent="67-sIcTnamFB4sGqpy6A-30" edge="1">
                    <mxGeometry width="50" height="50" relative="1" as="geometry">
                        <mxPoint y="52.5" as="sourcePoint"/>
                        <mxPoint x="20" y="26.25" as="targetPoint"/>
                    </mxGeometry>
                </mxCell>
                <mxCell id="67-sIcTnamFB4sGqpy6A-34" value="" style="endArrow=none;html=1;rounded=0;" parent="67-sIcTnamFB4sGqpy6A-30" edge="1">
                    <mxGeometry width="50" height="50" relative="1" as="geometry">
                        <mxPoint x="20" y="-39.375" as="sourcePoint"/>
                        <mxPoint x="20" y="26.25" as="targetPoint"/>
                        <Array as="points">
                            <mxPoint x="20"/>
                        </Array>
                    </mxGeometry>
                </mxCell>
                <mxCell id="67-sIcTnamFB4sGqpy6A-35" value="" style="endArrow=none;html=1;rounded=0;" parent="1" edge="1">
                    <mxGeometry width="50" height="50" relative="1" as="geometry">
                        <mxPoint x="190" y="390" as="sourcePoint"/>
                        <mxPoint x="190" y="340" as="targetPoint"/>
                    </mxGeometry>
                </mxCell>
                <mxCell id="67-sIcTnamFB4sGqpy6A-36" value="" style="group;rotation=-180;" parent="1" vertex="1" connectable="0">
                    <mxGeometry x="50" y="680" width="40" height="52.5" as="geometry"/>
                </mxCell>
                <mxCell id="67-sIcTnamFB4sGqpy6A-37" value="" style="endArrow=none;html=1;rounded=0;" parent="67-sIcTnamFB4sGqpy6A-36" edge="1">
                    <mxGeometry width="50" height="50" relative="1" as="geometry">
                        <mxPoint as="sourcePoint"/>
                        <mxPoint x="20" y="26" as="targetPoint"/>
                    </mxGeometry>
                </mxCell>
                <mxCell id="67-sIcTnamFB4sGqpy6A-38" value="" style="endArrow=none;html=1;rounded=0;" parent="67-sIcTnamFB4sGqpy6A-36" edge="1">
                    <mxGeometry width="50" height="50" relative="1" as="geometry">
                        <mxPoint x="20" as="sourcePoint"/>
                        <mxPoint x="20" y="26" as="targetPoint"/>
                    </mxGeometry>
                </mxCell>
                <mxCell id="67-sIcTnamFB4sGqpy6A-39" value="" style="endArrow=none;html=1;rounded=0;" parent="67-sIcTnamFB4sGqpy6A-36" edge="1">
                    <mxGeometry width="50" height="50" relative="1" as="geometry">
                        <mxPoint x="40" as="sourcePoint"/>
                        <mxPoint x="20" y="26" as="targetPoint"/>
                    </mxGeometry>
                </mxCell>
                <mxCell id="67-sIcTnamFB4sGqpy6A-40" value="" style="endArrow=none;html=1;rounded=0;" parent="67-sIcTnamFB4sGqpy6A-36" edge="1">
                    <mxGeometry width="50" height="50" relative="1" as="geometry">
                        <mxPoint x="20" y="92" as="sourcePoint"/>
                        <mxPoint x="20" y="26" as="targetPoint"/>
                        <Array as="points">
                            <mxPoint x="20" y="53"/>
                        </Array>
                    </mxGeometry>
                </mxCell>
                <mxCell id="67-sIcTnamFB4sGqpy6A-42" value="" style="endArrow=none;html=1;rounded=0;" parent="1" edge="1">
                    <mxGeometry width="50" height="50" relative="1" as="geometry">
                        <mxPoint x="70" y="830" as="sourcePoint"/>
                        <mxPoint x="70" y="770" as="targetPoint"/>
                    </mxGeometry>
                </mxCell>
                <mxCell id="67-sIcTnamFB4sGqpy6A-43" value="" style="group;rotation=90;" parent="1" vertex="1" connectable="0">
                    <mxGeometry x="210" y="470" width="39.37" height="37.5" as="geometry"/>
                </mxCell>
                <mxCell id="67-sIcTnamFB4sGqpy6A-44" value="" style="endArrow=none;html=1;rounded=0;" parent="67-sIcTnamFB4sGqpy6A-43" edge="1">
                    <mxGeometry width="50" height="50" relative="1" as="geometry">
                        <mxPoint x="44.821230769230766" y="37.5" as="sourcePoint"/>
                        <mxPoint x="64.50623076923077" y="18.75" as="targetPoint"/>
                    </mxGeometry>
                </mxCell>
                <mxCell id="67-sIcTnamFB4sGqpy6A-45" value="" style="endArrow=none;html=1;rounded=0;" parent="67-sIcTnamFB4sGqpy6A-43" edge="1">
                    <mxGeometry width="50" height="50" relative="1" as="geometry">
                        <mxPoint x="44.821230769230766" y="18.75" as="sourcePoint"/>
                        <mxPoint x="64.50623076923077" y="18.75" as="targetPoint"/>
                    </mxGeometry>
                </mxCell>
                <mxCell id="67-sIcTnamFB4sGqpy6A-46" value="" style="endArrow=none;html=1;rounded=0;" parent="67-sIcTnamFB4sGqpy6A-43" edge="1">
                    <mxGeometry width="50" height="50" relative="1" as="geometry">
                        <mxPoint x="44.821230769230766" as="sourcePoint"/>
                        <mxPoint x="64.50623076923077" y="18.75" as="targetPoint"/>
                    </mxGeometry>
                </mxCell>
                <mxCell id="67-sIcTnamFB4sGqpy6A-47" value="" style="endArrow=none;html=1;rounded=0;" parent="67-sIcTnamFB4sGqpy6A-43" edge="1">
                    <mxGeometry width="50" height="50" relative="1" as="geometry">
                        <mxPoint x="84" y="19.25" as="sourcePoint"/>
                        <mxPoint x="64.50623076923077" y="18.75" as="targetPoint"/>
                        <Array as="points">
                            <mxPoint x="84.19123076923076" y="18.75"/>
                        </Array>
                    </mxGeometry>
                </mxCell>
                <mxCell id="67-sIcTnamFB4sGqpy6A-54" value="" style="group" parent="1" vertex="1" connectable="0">
                    <mxGeometry x="340" y="740" width="40" height="40" as="geometry"/>
                </mxCell>
                <mxCell id="67-sIcTnamFB4sGqpy6A-55" value="" style="endArrow=none;html=1;rounded=0;" parent="67-sIcTnamFB4sGqpy6A-54" edge="1">
                    <mxGeometry width="50" height="50" relative="1" as="geometry">
                        <mxPoint x="40" y="40" as="sourcePoint"/>
                        <mxPoint x="20" y="20" as="targetPoint"/>
                    </mxGeometry>
                </mxCell>
                <mxCell id="67-sIcTnamFB4sGqpy6A-56" value="" style="endArrow=none;html=1;rounded=0;" parent="67-sIcTnamFB4sGqpy6A-54" edge="1">
                    <mxGeometry width="50" height="50" relative="1" as="geometry">
                        <mxPoint x="20" y="40" as="sourcePoint"/>
                        <mxPoint x="20" y="20" as="targetPoint"/>
                    </mxGeometry>
                </mxCell>
                <mxCell id="67-sIcTnamFB4sGqpy6A-57" value="" style="endArrow=none;html=1;rounded=0;" parent="67-sIcTnamFB4sGqpy6A-54" edge="1">
                    <mxGeometry width="50" height="50" relative="1" as="geometry">
                        <mxPoint y="40" as="sourcePoint"/>
                        <mxPoint x="20" y="20" as="targetPoint"/>
                    </mxGeometry>
                </mxCell>
                <mxCell id="67-sIcTnamFB4sGqpy6A-58" value="" style="endArrow=none;html=1;rounded=0;" parent="67-sIcTnamFB4sGqpy6A-54" edge="1">
                    <mxGeometry width="50" height="50" relative="1" as="geometry">
                        <mxPoint x="20" y="-30" as="sourcePoint"/>
                        <mxPoint x="20" y="20" as="targetPoint"/>
                        <Array as="points">
                            <mxPoint x="20"/>
                        </Array>
                    </mxGeometry>
                </mxCell>
                <mxCell id="67-sIcTnamFB4sGqpy6A-60" value="" style="group;rotation=90;" parent="1" vertex="1" connectable="0">
                    <mxGeometry x="430" y="788.75" width="35" height="33.75" as="geometry"/>
                </mxCell>
                <mxCell id="67-sIcTnamFB4sGqpy6A-61" value="" style="endArrow=none;html=1;rounded=0;" parent="67-sIcTnamFB4sGqpy6A-60" edge="1">
                    <mxGeometry width="50" height="50" relative="1" as="geometry">
                        <mxPoint x="44.46959565326628" y="38.76081081081081" as="sourcePoint"/>
                        <mxPoint x="61.96959565326628" y="21.88581081081081" as="targetPoint"/>
                    </mxGeometry>
                </mxCell>
                <mxCell id="67-sIcTnamFB4sGqpy6A-62" value="" style="endArrow=none;html=1;rounded=0;" parent="67-sIcTnamFB4sGqpy6A-60" edge="1">
                    <mxGeometry width="50" height="50" relative="1" as="geometry">
                        <mxPoint x="44.46959565326628" y="21.88581081081081" as="sourcePoint"/>
                        <mxPoint x="61.96959565326628" y="21.88581081081081" as="targetPoint"/>
                    </mxGeometry>
                </mxCell>
                <mxCell id="67-sIcTnamFB4sGqpy6A-63" value="" style="endArrow=none;html=1;rounded=0;" parent="67-sIcTnamFB4sGqpy6A-60" edge="1">
                    <mxGeometry width="50" height="50" relative="1" as="geometry">
                        <mxPoint x="44.46959565326628" y="5.010810810810811" as="sourcePoint"/>
                        <mxPoint x="61.96959565326628" y="21.88581081081081" as="targetPoint"/>
                    </mxGeometry>
                </mxCell>
                <mxCell id="67-sIcTnamFB4sGqpy6A-64" value="" style="endArrow=none;html=1;rounded=0;" parent="67-sIcTnamFB4sGqpy6A-60" edge="1">
                    <mxGeometry width="50" height="50" relative="1" as="geometry">
                        <mxPoint x="105.7195956532663" y="21.88581081081081" as="sourcePoint"/>
                        <mxPoint x="61.96959565326628" y="21.88581081081081" as="targetPoint"/>
                        <Array as="points">
                            <mxPoint x="79.46959565326631" y="21.88581081081081"/>
                        </Array>
                    </mxGeometry>
                </mxCell>
                <mxCell id="67-sIcTnamFB4sGqpy6A-66" value="" style="endArrow=none;dashed=1;html=1;rounded=0;" parent="1" edge="1">
                    <mxGeometry width="50" height="50" relative="1" as="geometry">
                        <mxPoint x="540" y="720" as="sourcePoint"/>
                        <mxPoint x="540" y="810" as="targetPoint"/>
                    </mxGeometry>
                </mxCell>
                <mxCell id="67-sIcTnamFB4sGqpy6A-67" value="" style="endArrow=none;dashed=1;html=1;rounded=0;" parent="1" edge="1">
                    <mxGeometry width="50" height="50" relative="1" as="geometry">
                        <mxPoint x="360" y="620" as="sourcePoint"/>
                        <mxPoint x="360" y="710" as="targetPoint"/>
                    </mxGeometry>
                </mxCell>
                <mxCell id="67-sIcTnamFB4sGqpy6A-68" value="" style="endArrow=none;html=1;rounded=0;exitX=0.296;exitY=1.021;exitDx=0;exitDy=0;exitPerimeter=0;" parent="1" source="YUvY62k6yK-k-bDOzvRu-9" edge="1">
                    <mxGeometry width="50" height="50" relative="1" as="geometry">
                        <mxPoint x="460" y="720" as="sourcePoint"/>
                        <mxPoint x="360" y="620" as="targetPoint"/>
                    </mxGeometry>
                </mxCell>
                <mxCell id="67-sIcTnamFB4sGqpy6A-69" value="" style="endArrow=none;html=1;rounded=0;exitX=0.468;exitY=0.995;exitDx=0;exitDy=0;exitPerimeter=0;" parent="1" source="YUvY62k6yK-k-bDOzvRu-17" edge="1">
                    <mxGeometry width="50" height="50" relative="1" as="geometry">
                        <mxPoint x="460" y="720" as="sourcePoint"/>
                        <mxPoint x="540" y="720" as="targetPoint"/>
                    </mxGeometry>
                </mxCell>
                <mxCell id="67-sIcTnamFB4sGqpy6A-71" value="" style="endArrow=none;dashed=1;html=1;rounded=0;entryX=0;entryY=0.75;entryDx=0;entryDy=0;" parent="1" target="YUvY62k6yK-k-bDOzvRu-18" edge="1">
                    <mxGeometry width="50" height="50" relative="1" as="geometry">
                        <mxPoint x="70" y="830" as="sourcePoint"/>
                        <mxPoint x="510" y="670" as="targetPoint"/>
                    </mxGeometry>
                </mxCell>
                <mxCell id="67-sIcTnamFB4sGqpy6A-72" value="" style="group" parent="1" vertex="1" connectable="0">
                    <mxGeometry x="360" y="980" width="40" height="40" as="geometry"/>
                </mxCell>
                <mxCell id="67-sIcTnamFB4sGqpy6A-73" value="" style="endArrow=none;html=1;rounded=0;" parent="67-sIcTnamFB4sGqpy6A-72" edge="1">
                    <mxGeometry width="50" height="50" relative="1" as="geometry">
                        <mxPoint x="40" y="40" as="sourcePoint"/>
                        <mxPoint x="20" y="20" as="targetPoint"/>
                    </mxGeometry>
                </mxCell>
                <mxCell id="67-sIcTnamFB4sGqpy6A-74" value="" style="endArrow=none;html=1;rounded=0;" parent="67-sIcTnamFB4sGqpy6A-72" edge="1">
                    <mxGeometry width="50" height="50" relative="1" as="geometry">
                        <mxPoint x="20" y="40" as="sourcePoint"/>
                        <mxPoint x="20" y="20" as="targetPoint"/>
                    </mxGeometry>
                </mxCell>
                <mxCell id="67-sIcTnamFB4sGqpy6A-75" value="" style="endArrow=none;html=1;rounded=0;" parent="67-sIcTnamFB4sGqpy6A-72" edge="1">
                    <mxGeometry width="50" height="50" relative="1" as="geometry">
                        <mxPoint y="40" as="sourcePoint"/>
                        <mxPoint x="20" y="20" as="targetPoint"/>
                    </mxGeometry>
                </mxCell>
                <mxCell id="67-sIcTnamFB4sGqpy6A-76" value="" style="endArrow=none;html=1;rounded=0;" parent="67-sIcTnamFB4sGqpy6A-72" edge="1">
                    <mxGeometry width="50" height="50" relative="1" as="geometry">
                        <mxPoint x="20" y="-30" as="sourcePoint"/>
                        <mxPoint x="20" y="20" as="targetPoint"/>
                        <Array as="points">
                            <mxPoint x="20"/>
                        </Array>
                    </mxGeometry>
                </mxCell>
                <mxCell id="lkPcyrDVONSHtsJ02F2I-13" value="" style="endArrow=none;html=1;rounded=0;entryX=1;entryY=0.25;entryDx=0;entryDy=0;dashed=1;" parent="1" target="YUvY62k6yK-k-bDOzvRu-8" edge="1">
                    <mxGeometry width="50" height="50" relative="1" as="geometry">
                        <mxPoint x="900" y="320" as="sourcePoint"/>
                        <mxPoint x="700" y="270" as="targetPoint"/>
                    </mxGeometry>
                </mxCell>
                <mxCell id="6" value="" style="endArrow=none;dashed=1;html=1;rounded=0;" edge="1" parent="1">
                    <mxGeometry width="50" height="50" relative="1" as="geometry">
                        <mxPoint x="379.2" y="840" as="sourcePoint"/>
                        <mxPoint x="379" y="950" as="targetPoint"/>
                    </mxGeometry>
                </mxCell>
                <mxCell id="7" value="" style="endArrow=none;html=1;rounded=0;entryX=0;entryY=0.5;entryDx=0;entryDy=0;dashed=1;" edge="1" parent="1" target="YUvY62k6yK-k-bDOzvRu-9">
                    <mxGeometry width="50" height="50" relative="1" as="geometry">
                        <mxPoint x="290" y="490" as="sourcePoint"/>
                        <mxPoint x="390" y="350" as="targetPoint"/>
                    </mxGeometry>
                </mxCell>
                <mxCell id="9" value="" style="endArrow=none;dashed=1;html=1;rounded=0;entryX=0.629;entryY=0.007;entryDx=0;entryDy=0;entryPerimeter=0;" edge="1" parent="1" target="YUvY62k6yK-k-bDOzvRu-9">
                    <mxGeometry width="50" height="50" relative="1" as="geometry">
                        <mxPoint x="400" y="420" as="sourcePoint"/>
                        <mxPoint x="420" y="620" as="targetPoint"/>
                    </mxGeometry>
                </mxCell>
                <mxCell id="10" value="" style="endArrow=none;dashed=1;html=1;rounded=0;exitX=0.87;exitY=1.058;exitDx=0;exitDy=0;exitPerimeter=0;" edge="1" parent="1" source="YUvY62k6yK-k-bDOzvRu-8">
                    <mxGeometry width="50" height="50" relative="1" as="geometry">
                        <mxPoint x="410" y="430" as="sourcePoint"/>
                        <mxPoint x="528" y="410" as="targetPoint"/>
                    </mxGeometry>
                </mxCell>
                <mxCell id="11" value="" style="endArrow=none;dashed=1;html=1;rounded=0;" edge="1" parent="1">
                    <mxGeometry width="50" height="50" relative="1" as="geometry">
                        <mxPoint x="799.6" y="600" as="sourcePoint"/>
                        <mxPoint x="800" y="650" as="targetPoint"/>
                    </mxGeometry>
                </mxCell>
                <mxCell id="12" value="" style="endArrow=none;dashed=1;html=1;rounded=0;entryX=0.5;entryY=0;entryDx=0;entryDy=0;" edge="1" parent="1" target="YUvY62k6yK-k-bDOzvRu-17">
                    <mxGeometry width="50" height="50" relative="1" as="geometry">
                        <mxPoint x="545" y="560" as="sourcePoint"/>
                        <mxPoint x="550" y="820" as="targetPoint"/>
                    </mxGeometry>
                </mxCell>
            </root>
        </mxGraphModel>
    </diagram>
</mxfile>